<?xml version="1.0" encoding="UTF-8" standalone="no"?>
<!-- Generator: Adobe Illustrator 14.0.0, SVG Export Plug-In . SVG Version: 6.00 Build 43363)  -->

<svg
   xmlns:dc="http://purl.org/dc/elements/1.1/"
   xmlns:cc="http://creativecommons.org/ns#"
   xmlns:rdf="http://www.w3.org/1999/02/22-rdf-syntax-ns#"
   xmlns:svg="http://www.w3.org/2000/svg"
   xmlns="http://www.w3.org/2000/svg"
   xmlns:xlink="http://www.w3.org/1999/xlink"
   xmlns:sodipodi="http://sodipodi.sourceforge.net/DTD/sodipodi-0.dtd"
   xmlns:inkscape="http://www.inkscape.org/namespaces/inkscape"
   version="1.1"
   id="Layer_1"
   x="0px"
   y="0px"
   width="535.68903"
   height="528.29297"
   viewBox="0 0 535.68903 528.29297"
   enable-background="new 0 0 612 792"
   xml:space="preserve"
   inkscape:version="0.48.0 r9654"
   sodipodi:docname="node_nock_logo.svg"><metadata
   id="metadata109"><rdf:RDF><cc:Work
       rdf:about=""><dc:format>image/svg+xml</dc:format><dc:type
         rdf:resource="http://purl.org/dc/dcmitype/StillImage" /><dc:title /></cc:Work></rdf:RDF></metadata><defs
   id="defs107"><linearGradient
     id="linearGradient3918"><stop
       style="stop-color:#ffff00;stop-opacity:1;"
       offset="0"
       id="stop3920" /><stop
       style="stop-color:#ffff00;stop-opacity:0;"
       offset="1"
       id="stop3922" /></linearGradient><linearGradient
     inkscape:collect="always"
     xlink:href="#linearGradient3918"
     id="linearGradient3926"
     x1="385.11789"
     y1="504.43359"
     x2="383.85925"
     y2="586.07416"
     gradientUnits="userSpaceOnUse"
     gradientTransform="translate(-38.285,-137.359)" /></defs><sodipodi:namedview
   pagecolor="#000000"
   bordercolor="#666666"
   borderopacity="1"
   objecttolerance="10"
   gridtolerance="10"
   guidetolerance="10"
   inkscape:pageopacity="1"
   inkscape:pageshadow="2"
   inkscape:window-width="1280"
   inkscape:window-height="752"
   id="namedview105"
   showgrid="false"
   inkscape:zoom="0.93566655"
   inkscape:cx="71.383114"
   inkscape:cy="324.21639"
   inkscape:window-x="0"
   inkscape:window-y="0"
   inkscape:window-maximized="1"
   inkscape:current-layer="Layer_1"
   fit-margin-top="0"
   fit-margin-left="0"
   fit-margin-right="0"
   fit-margin-bottom="0" />
<path
   style="fill:#ffff00;fill-opacity:1;stroke:none"
   d="m 282.06536,217.99165 c 0.18975,2.197 0.28235,4.4245 0.28125,6.6875 0,2.264 -0.0932,4.51675 -0.28125,6.71875 l 10.65625,0 53.27863,31.6646 14.28387,52.5229 0,18.84375 c 2.41906,-0.236 4.88327,-0.377 7.375,-0.375 2.49283,0 4.95044,0.141 7.375,0.375 l 0,-115.46875 c -0.10067,0.0174 -0.21158,0.0146 -0.3125,0.0312 0.0434,-0.33097 0.10612,-0.67172 0.15625,-1 l -92.8125,0 z"
   id="rect3916"
   inkscape:connector-curvature="0"
   sodipodi:nodetypes="cccccccccccccc" /><path
   d="m 251.106,116.456 0,0 0,0 z"
   id="path3"
   inkscape:connector-curvature="0"
   style="fill:#231f20" />
<g
   id="g5"
   transform="translate(-38.285,-137.359)">
	<path
   d="m 42.084,358.068 h 21.333 l 54.481,96.435 v -96.435 h 14.118 V 474.695 H 112.372 L 56.051,375.674 v 99.021 H 42.084 V 358.068 z"
   id="path7"
   inkscape:connector-curvature="0"
   style="fill:#0892d0" />
</g>

<g
   id="g13"
   transform="translate(-38.285,-137.359)">
	<path
   d="m 444.497,358.068 h 69.524 v 13.73 h -54.177 v 36.344 h 51.568 v 13.567 h -51.568 v 38.77 h 55.399 v 14.217 h -70.748 l 0.002,-116.628 0,0 z"
   id="path15"
   inkscape:connector-curvature="0"
   style="fill:#0892d0" />
</g>
<g
   id="g17"
   transform="translate(-38.285,-137.359)">
	<g
   id="g19">
		<path
   d="m 221.441,479.645 c -34.269,0 -62.147,-27.878 -62.147,-62.146 0,-34.268 27.878,-62.149 62.147,-62.149 34.267,0 62.146,27.882 62.146,62.149 0,34.268 -27.879,62.146 -62.146,62.146 l 0,0 z m 0,-109.194 c -25.942,0 -47.046,21.105 -47.046,47.047 0,25.939 21.104,47.044 47.046,47.044 25.94,0 47.044,-21.104 47.044,-47.044 0,-25.941 -21.104,-47.047 -47.044,-47.047 l 0,0 z"
   id="path21"
   inkscape:connector-curvature="0"
   style="fill:#0892d0" />
	</g>
</g>
<g
   id="g23"
   transform="translate(-38.285,-137.359)">
	<g
   id="g25">
		<path
   d="m 393.836,288.798 c -24.092,0 -43.696,-19.601 -43.696,-43.694 0,-24.096 19.604,-43.698 43.696,-43.698 24.095,0 43.692,19.603 43.692,43.698 0,24.093 -19.597,43.694 -43.692,43.694 l 0,0 z m 0,-75.214 c -17.38,0 -31.52,14.14 -31.52,31.52 0,17.376 14.14,31.514 31.52,31.514 17.38,0 31.516,-14.138 31.516,-31.514 0,-17.38 -14.136,-31.52 -31.516,-31.52 l 0,0 z"
   id="path27"
   inkscape:connector-curvature="0"
   style="fill:#0892d0" />
	</g>
</g>
<g
   id="g29"
   transform="translate(-38.285,-137.359)">
	<g
   id="g31">
		<path
   d="m 551.536,532.62 c -12.37,0 -22.437,-10.067 -22.437,-22.438 0,-12.374 10.065,-22.438 22.437,-22.438 12.374,0 22.438,10.062 22.438,22.438 0.002,12.371 -10.064,22.438 -22.438,22.438 l 0,0 z m 0,-35.13 c -7,0 -12.692,5.693 -12.692,12.691 0,7 5.692,12.695 12.692,12.695 7,0 12.696,-5.695 12.696,-12.695 0,-6.996 -5.696,-12.691 -12.696,-12.691 l 0,0 z"
   id="path33"
   inkscape:connector-curvature="0"
   style="fill:#0892d0" />
	</g>
</g>
<path
   style="fill:url(#linearGradient3926);fill-opacity:1;fill-rule:nonzero;stroke:none"
   d="m 334.22264,349.74405 c 57.01856,84.05167 28.67895,37.2159 62.3664,95.52673 l 137.50399,-1.04087 -161.06328,-111.6909 z"
   id="path3910"
   inkscape:connector-curvature="0"
   sodipodi:nodetypes="ccccc" /><path
   d="m 490.816,372.824 c 0,-2.331 0.356,-4.582 1.021,-6.697 H 278.618 l -47.065,-47.063 c -2.81,3.486 -5.985,6.664 -9.475,9.475 l 50.996,50.987 h 218.761 c -0.663,-2.12 -1.019,-4.371 -1.019,-6.702 z"
   id="path35"
   style="fill:#ffffff;fill-opacity:1"
   inkscape:connector-curvature="0" />
<g
   id="g37"
   transform="translate(-38.285,-137.359)">
	<g
   id="g39">
		<path
   d="m 289.391,195.255 c -15.963,0 -28.951,-12.987 -28.951,-28.95 0,-15.958 12.988,-28.946 28.951,-28.946 15.962,0 28.948,12.988 28.948,28.946 0,15.963 -12.985,28.95 -28.948,28.95 l 0,0 z m 0,-46.935 c -9.919,0 -17.989,8.068 -17.989,17.984 0,9.918 8.07,17.988 17.989,17.988 9.916,0 17.985,-8.07 17.985,-17.988 0,-9.915 -8.069,-17.984 -17.985,-17.984 l 0,0 z"
   id="path41"
   inkscape:connector-curvature="0"
   style="fill:#0892d0" />
	</g>
</g>
<g
   id="g43"
   transform="translate(-38.285,-137.359)">
	<g
   id="g45">
		<path
   d="m 221.438,665.652 c -19.727,0 -35.776,-16.051 -35.776,-35.777 0,-19.726 16.049,-35.773 35.776,-35.773 19.729,0 35.778,16.047 35.778,35.773 0,19.726 -16.049,35.777 -35.778,35.777 l 0,0 z m 0,-59.373 c -13.01,0 -23.595,10.587 -23.595,23.596 0,13.012 10.585,23.597 23.595,23.597 13.013,0 23.599,-10.585 23.599,-23.597 -0.001,-13.009 -10.587,-23.596 -23.599,-23.596 l 0,0 z"
   id="path47"
   inkscape:connector-curvature="0"
   style="fill:#0892d0" />
	</g>
</g>

<g
   id="g51"
   transform="translate(-38.285,-137.359)">
	<g
   id="g53">
		<path
   d="m 79.157,588.12 c -15.628,0 -28.343,-12.711 -28.343,-28.34 0,-15.628 12.715,-28.341 28.343,-28.341 15.625,0 28.338,12.713 28.338,28.341 10e-4,15.629 -12.713,28.34 -28.338,28.34 l 0,0 z m 0,-45.719 c -9.584,0 -17.381,7.796 -17.381,17.379 0,9.582 7.796,17.38 17.381,17.38 9.582,0 17.376,-7.798 17.376,-17.38 0.001,-9.583 -7.794,-17.379 -17.376,-17.379 l 0,0 z"
   id="path55"
   inkscape:connector-curvature="0"
   style="fill:#0892d0" />
	</g>
</g>
<path
   d="M 134.729,319.028 54.84,397.795 c 3.94,2.245 7.29,5.401 9.761,9.188 l 79.597,-78.475 c -3.486,-2.812 -6.661,-5.994 -9.469,-9.48 z"
   id="path57"
   style="fill:#ffffff;fill-opacity:1"
   inkscape:connector-curvature="0" />
<g
   id="g59"
   transform="translate(-38.285,-137.359)">
	<g
   id="g61">
		<path
   d="m 191.755,275.894 c -12.176,0 -22.08,-9.903 -22.08,-22.079 0,-12.173 9.904,-22.078 22.08,-22.078 12.172,0 22.078,9.905 22.078,22.078 0,12.176 -9.906,22.079 -22.078,22.079 l 0,0 z m 0,-34.413 c -6.801,0 -12.335,5.533 -12.335,12.334 0,6.802 5.534,12.335 12.335,12.335 6.8,0 12.333,-5.533 12.333,-12.335 0,-6.801 -5.533,-12.334 -12.333,-12.334 l 0,0 z"
   id="path63"
   inkscape:connector-curvature="0"
   style="fill:#0892d0" />
	</g>
</g>
<path
   d="m 257.804,57.080997 c -2.152,0.511 -4.389,0.814 -6.698,0.814 -2.309,0 -4.545,-0.303 -6.699,-0.814 V 109.757 h -69.908 c 0.674,2.117 1.049,4.364 1.049,6.699 0,2.335 -0.375,4.583 -1.049,6.7 h 73.832 l 41.167,41.167 -67.42,67.418 c 3.49,2.808 6.665,5.986 9.475,9.473 l 98.246,-98.249 c -3.627,-2.656 -6.817,-5.85 -9.475,-9.471 l -21.355,21.355 -41.165,-41.165 V 57.080997 l 0,0 z"
   id="path65"
   style="fill:#ffffff;fill-opacity:1"
   inkscape:connector-curvature="0" />
<rect
   x="0"
   y="160.118"
   width="409.09"
   height="142.858"
   id="rect67"
   style="fill:none" />









<path
   id="path3113"
   d="m 176.11295,341.69161 -0.0628,116.15428 c 4.36555,-1.27037 8.965,-1.4434 13.39604,-0.50982 l 0.0655,-115.72674 c -4.45016,0.52345 -8.94517,0.54863 -13.39873,0.0823 z"
   inkscape:connector-curvature="0"
   style="fill:#ffffff;fill-opacity:1" /><g
   id="g9"
   transform="translate(-38.285,-137.359)">
	<path
   d="m 319.666,355.62411 32.068,15.92536 c 14.891,7.39505 32.384,16.08229 44.662,37.36369 9.827,16.99621 13.658,34.88873 13.658,50.88273 0,25.2 -9.975,35.7523 -18.418,38.6684 -10.896,4.11691 -24.554,-2.66582 -40.815,-10.74123 l -31.155,-15.47195 v -116.627 l 0,0 z m 15.341,110.99953 15.046,7.47202 c 10.584,5.25615 21.64,10.10169 28.999,7.93826 14.121,-4.13334 14.583,-22.9649 14.583,-29.7459 0,-4.362 -0.311,-24.38645 -10.74,-41.68162 -7.061,-11.74158 -15.963,-18.10042 -29.47,-24.80816 l -18.418,-9.1466 v 89.972 z"
   id="path11"
   inkscape:connector-curvature="0"
   style="fill:#0892d0" />
</g><g
   id="g3912"
   transform="translate(-74.622731,-23.881853)"
   style="fill:#000000;fill-opacity:1">
	
</g><path
   style="fill:#ffffff;fill-opacity:1"
   d="m 343.70214,527.87583 c -11.74128,-1.7197 -20.59139,-7.07013 -25.64887,-15.5063 -4.17308,-6.96096 -4.93196,-9.96311 -5.42862,-21.47562 -0.66203,-15.34613 2.10377,-25.05974 9.45103,-33.19227 7.09016,-7.84795 15.07385,-11.0333 27.6537,-11.0333 19.13064,0 31.7263,9.65043 35.94272,27.53828 3.68016,15.61282 -0.0516,33.54318 -9.05527,43.50921 -7.03205,7.78365 -20.58225,11.96627 -32.91469,10.16 z m 15.78794,-15.14362 c 6.07187,-4.49844 8.36944,-10.39869 9.10731,-23.38776 0.61303,-10.79171 -1.16456,-18.67936 -5.3555,-23.76368 -3.79071,-4.59879 -7.33074,-6.21085 -13.63884,-6.21085 -7.6974,0 -12.57691,3.04575 -15.97901,9.97396 -2.45291,4.99523 -2.57277,5.83648 -2.57277,18.05736 0,12.45023 0.0784,12.97103 2.73292,18.14935 3.74885,7.31315 8.35484,9.84825 17.05164,9.38511 4.37592,-0.23304 6.84217,-0.86099 8.65425,-2.20349 z m 58.85453,13.87999 c -8.76778,-2.853 -16.81011,-10.53468 -20.29866,-19.38839 -2.62043,-6.65052 -3.60267,-22.4388 -1.88138,-30.2409 3.87364,-17.55807 15.7143,-28.22179 32.30338,-29.09249 5.25931,-0.27604 9.03938,0.0498 12.60614,1.0867 9.90825,2.88041 17.48241,11.20729 18.57343,20.41928 l 0.56035,4.73131 -8.74602,0 -8.74604,0 -1.02035,-3.78929 c -0.56119,-2.08411 -1.63541,-4.728 -2.38716,-5.87531 -2.89849,-4.42367 -12.18615,-5.13286 -17.51621,-1.33753 -1.49564,1.06499 -3.87197,4.2836 -5.28077,7.15246 -2.45032,4.98988 -2.56141,5.78903 -2.56141,18.42525 0,12.00405 0.19424,13.60357 2.12923,17.53271 2.50357,5.08367 5.52404,7.70422 9.80585,8.50749 7.75588,1.45502 14.0262,-2.47933 15.91665,-9.98696 l 1.06023,-4.21058 9.10504,0 9.10503,0 -0.64561,4.32713 c -0.3551,2.37992 -1.18168,5.61415 -1.83687,7.18718 -1.83034,4.39444 -7.58666,10.23266 -12.69766,12.87829 -3.97094,2.05551 -5.94342,2.42413 -14.1779,2.64958 -6.26168,0.17144 -10.87905,-0.16561 -13.36929,-0.97593 z m -187.045,-39.75657 0,-39.19759 12.44062,0.25346 12.44062,0.25345 13.74989,28.90707 13.74988,28.90708 0.45548,-28.90708 0.45549,-28.90707 7.97103,-0.26321 7.97101,-0.26322 0,39.20736 0,39.20734 -11.71145,0 -11.71146,0 -14.47904,-31.06696 -14.47905,-31.06696 -0.23971,31.06696 -0.23969,31.06696 -8.18681,0 -8.18681,0 0,-39.19759 z m 238.89316,0.25345 0.23753,-38.94413 8.65425,0 8.65425,0 0.45549,15.84828 0.45548,15.84826 12.30453,-15.84826 12.30452,-15.84828 9.7866,-0.25857 c 5.38263,-0.14221 9.77977,0.0627 9.77142,0.45549 -0.008,0.39273 -6.1574,8.19788 -13.6646,17.34477 -7.50719,9.1469 -13.64944,17.01728 -13.64944,17.48973 0,0.47246 5.85406,8.97623 13.00902,18.89727 7.15496,9.92104 13.94687,19.37056 15.09311,20.99892 l 2.08407,2.96066 -10.76598,-0.0179 -10.76597,-0.0179 -12.75364,-18.63342 -12.75364,-18.63342 -0.24622,18.65139 -0.24623,18.65138 -9.10103,0 -9.10104,0 0.23752,-38.94414 z"
   id="path3967"
   inkscape:connector-curvature="0" /></svg>